<svg xmlns="http://www.w3.org/2000/svg" viewBox="0 0 1200 800" preserveAspectRatio="xMidYMid slice">
  <defs>
    <!-- warm wood/leather gradient background -->
    <linearGradient id="bgGrad" x1="0%" y1="0%" x2="0%" y2="100%">
      <stop offset="0%" stop-color="#3a2a1a"/>
      <stop offset="100%" stop-color="#1a0f08"/>
    </linearGradient>
    <radialGradient id="lampGlow" cx="50%" cy="50%" r="50%">
      <stop offset="0%" stop-color="#f4c878" stop-opacity="0.55"/>
      <stop offset="60%" stop-color="#a0641e" stop-opacity="0.15"/>
      <stop offset="100%" stop-color="#000" stop-opacity="0"/>
    </radialGradient>
    <linearGradient id="workbench" x1="0%" y1="0%" x2="0%" y2="100%">
      <stop offset="0%" stop-color="#6b4824"/>
      <stop offset="100%" stop-color="#3d2614"/>
    </linearGradient>
    <linearGradient id="leather" x1="0%" y1="0%" x2="0%" y2="100%">
      <stop offset="0%" stop-color="#8b5a2b"/>
      <stop offset="100%" stop-color="#4a2f15"/>
    </linearGradient>
    <linearGradient id="darkLeather" x1="0%" y1="0%" x2="0%" y2="100%">
      <stop offset="0%" stop-color="#4a3220"/>
      <stop offset="100%" stop-color="#231509"/>
    </linearGradient>
    <linearGradient id="metal" x1="0%" y1="0%" x2="0%" y2="100%">
      <stop offset="0%" stop-color="#5a5550"/>
      <stop offset="50%" stop-color="#2a2825"/>
      <stop offset="100%" stop-color="#1a1815"/>
    </linearGradient>
    <linearGradient id="brass" x1="0%" y1="0%" x2="0%" y2="100%">
      <stop offset="0%" stop-color="#c9a165"/>
      <stop offset="100%" stop-color="#7a5d2c"/>
    </linearGradient>
    <!-- subtle paper grain noise -->
    <filter id="grain">
      <feTurbulence type="fractalNoise" baseFrequency="0.9" numOctaves="2" seed="3"/>
      <feColorMatrix values="0 0 0 0 0  0 0 0 0 0  0 0 0 0 0  0 0 0 0.08 0"/>
      <feComposite in2="SourceGraphic" operator="in"/>
    </filter>
  </defs>

  <!-- background wall -->
  <rect width="1200" height="800" fill="url(#bgGrad)"/>

  <!-- ambient lamp glow from top -->
  <ellipse cx="700" cy="100" rx="600" ry="350" fill="url(#lampGlow)"/>

  <!-- back wall: wooden plank pattern -->
  <g opacity="0.4">
    <line x1="0" y1="160" x2="1200" y2="160" stroke="#1a0f08" stroke-width="2"/>
    <line x1="0" y1="280" x2="1200" y2="280" stroke="#1a0f08" stroke-width="2"/>
    <line x1="0" y1="380" x2="1200" y2="380" stroke="#1a0f08" stroke-width="2"/>
    <line x1="200" y1="0" x2="200" y2="380" stroke="#1a0f08" stroke-width="1.5" opacity="0.5"/>
    <line x1="480" y1="0" x2="480" y2="380" stroke="#1a0f08" stroke-width="1.5" opacity="0.5"/>
    <line x1="780" y1="0" x2="780" y2="380" stroke="#1a0f08" stroke-width="1.5" opacity="0.5"/>
    <line x1="1020" y1="0" x2="1020" y2="380" stroke="#1a0f08" stroke-width="1.5" opacity="0.5"/>
  </g>

  <!-- hanging shelf with tools (silhouettes) -->
  <g transform="translate(80, 220)">
    <rect x="0" y="0" width="400" height="8" fill="#2a1a0e"/>
    <!-- hanging awls/tools -->
    <line x1="40" y1="8" x2="40" y2="55" stroke="#1a1815" stroke-width="3"/>
    <circle cx="40" cy="58" r="5" fill="#3a3530"/>
    <line x1="80" y1="8" x2="80" y2="48" stroke="#1a1815" stroke-width="3"/>
    <path d="M 75 48 L 85 48 L 80 62 Z" fill="#4a3a2a"/>
    <line x1="125" y1="8" x2="125" y2="60" stroke="#1a1815" stroke-width="2"/>
    <circle cx="125" cy="63" r="4" fill="#5a4530"/>
    <line x1="165" y1="8" x2="165" y2="52" stroke="#1a1815" stroke-width="3"/>
    <rect x="160" y="52" width="10" height="12" fill="#3a2a1a"/>
    <!-- spool of thread -->
    <ellipse cx="220" cy="22" rx="18" ry="12" fill="#6b3a2a"/>
    <rect x="202" y="22" width="36" height="18" fill="#8b4a2a"/>
    <ellipse cx="220" cy="40" rx="18" ry="6" fill="#4a2515"/>
    <!-- small hanging shoe -->
    <path d="M 290 8 L 290 35 Q 290 50 305 52 L 340 52 Q 355 50 358 38 L 358 28" fill="none" stroke="#1a1815" stroke-width="2"/>
    <path d="M 295 35 Q 295 48 308 50 L 340 50 Q 352 48 354 38 L 354 30 L 295 30 Z" fill="url(#darkLeather)"/>
    <!-- hammer -->
    <line x1="385" y1="8" x2="385" y2="60" stroke="#3a2a1a" stroke-width="4"/>
    <rect x="372" y="58" width="26" height="12" fill="#2a2825" rx="2"/>
  </g>

  <!-- workbench surface -->
  <rect x="0" y="450" width="1200" height="350" fill="url(#workbench)"/>
  <!-- bench front edge highlight -->
  <rect x="0" y="450" width="1200" height="6" fill="#8a5d34" opacity="0.6"/>
  <!-- wood grain on bench -->
  <g opacity="0.25" stroke="#1a0f08" fill="none">
    <path d="M 0 510 Q 300 505 600 512 T 1200 508" stroke-width="1.5"/>
    <path d="M 0 570 Q 250 575 500 568 T 1200 572" stroke-width="1"/>
    <path d="M 0 640 Q 400 635 700 642 T 1200 638" stroke-width="1.5"/>
    <path d="M 0 720 Q 350 715 650 722 T 1200 718" stroke-width="1"/>
  </g>

  <!-- ====== VINTAGE SINGER SEWING MACHINE (center-left) ====== -->
  <g transform="translate(380, 280)">
    <!-- wooden base -->
    <rect x="-20" y="160" width="260" height="30" fill="#2a1810" rx="3"/>
    <rect x="-20" y="160" width="260" height="6" fill="#5a3a20" opacity="0.7"/>

    <!-- machine body — characteristic curved arm -->
    <!-- bed plate -->
    <rect x="0" y="130" width="220" height="35" fill="url(#metal)" rx="4"/>
    <!-- pillar -->
    <rect x="180" y="40" width="40" height="100" fill="url(#metal)" rx="3"/>
    <!-- arm extending left -->
    <path d="M 220 50 Q 220 35 200 35 L 30 35 Q 5 35 5 60 L 5 95 Q 5 110 25 110 L 35 110 L 35 85 Q 35 70 50 70 L 195 70 Q 215 70 215 88 L 215 130 L 220 130 Z" fill="url(#metal)"/>
    <!-- needle assembly -->
    <rect x="20" y="105" width="20" height="35" fill="#2a2825"/>
    <line x1="30" y1="140" x2="30" y2="158" stroke="#c0c0c0" stroke-width="1.5"/>
    <!-- presser foot -->
    <path d="M 26 156 L 34 156 L 36 162 L 24 162 Z" fill="#6a6560"/>

    <!-- handwheel on right -->
    <circle cx="245" cy="85" r="28" fill="url(#metal)"/>
    <circle cx="245" cy="85" r="22" fill="#1a1815"/>
    <circle cx="245" cy="85" r="6" fill="url(#brass)"/>
    <!-- spokes -->
    <g stroke="#3a3530" stroke-width="2">
      <line x1="245" y1="65" x2="245" y2="105"/>
      <line x1="225" y1="85" x2="265" y2="85"/>
      <line x1="231" y1="71" x2="259" y2="99"/>
      <line x1="259" y1="71" x2="231" y2="99"/>
    </g>

    <!-- gold "SINGER"-style ornamental decals -->
    <g fill="#b8893e" opacity="0.75">
      <ellipse cx="110" cy="52" rx="50" ry="6"/>
      <path d="M 70 80 Q 110 75 150 80" stroke="#b8893e" stroke-width="1" fill="none"/>
      <circle cx="60" cy="95" r="2"/>
      <circle cx="80" cy="92" r="1.5"/>
      <circle cx="140" cy="92" r="1.5"/>
      <circle cx="160" cy="95" r="2"/>
    </g>

    <!-- thread spool on top -->
    <rect x="155" y="20" width="6" height="20" fill="#5a4030"/>
    <ellipse cx="158" cy="20" rx="14" ry="4" fill="#7a3a2a"/>
    <rect x="144" y="20" width="28" height="14" fill="#9a4a2a"/>
    <ellipse cx="158" cy="34" rx="14" ry="4" fill="#5a2515"/>

    <!-- balance wheel highlight -->
    <circle cx="245" cy="85" r="28" fill="none" stroke="#7a7570" stroke-width="0.5" opacity="0.6"/>
  </g>

  <!-- ====== LEATHER BOOT in foreground (right) ====== -->
  <g transform="translate(780, 480)">
    <!-- sole -->
    <path d="M 0 130 Q 0 145 15 148 L 215 148 Q 235 148 240 135 L 240 125 L 0 125 Z" fill="#1a0f08"/>
    <path d="M 5 125 L 240 125 L 240 132 L 5 132 Z" fill="#3a2a1a"/>
    <!-- heel -->
    <rect x="195" y="125" width="40" height="28" fill="#1a0f08"/>
    <rect x="195" y="125" width="40" height="6" fill="#3a2a1a"/>

    <!-- boot upper -->
    <path d="M 15 125 Q 15 60 35 35 Q 50 18 85 15 L 175 15 Q 205 15 215 30 Q 225 50 225 90 L 225 125 Z" fill="url(#leather)"/>
    <!-- shaft top opening -->
    <ellipse cx="125" cy="18" rx="90" ry="8" fill="#2a1810"/>
    <ellipse cx="125" cy="18" rx="85" ry="5" fill="#1a0f08"/>

    <!-- toe cap stitching -->
    <path d="M 25 100 Q 30 80 60 75 L 95 75" fill="none" stroke="#d4a574" stroke-width="0.8" stroke-dasharray="3,2" opacity="0.7"/>
    <!-- side seam stitching -->
    <path d="M 130 25 L 130 120" stroke="#d4a574" stroke-width="0.6" stroke-dasharray="2,2" opacity="0.6"/>

    <!-- laces / eyelets -->
    <g fill="#b8893e">
      <circle cx="80" cy="40" r="2.5"/>
      <circle cx="105" cy="40" r="2.5"/>
      <circle cx="80" cy="60" r="2.5"/>
      <circle cx="105" cy="60" r="2.5"/>
      <circle cx="80" cy="80" r="2.5"/>
      <circle cx="105" cy="80" r="2.5"/>
      <circle cx="80" cy="100" r="2.5"/>
      <circle cx="105" cy="100" r="2.5"/>
    </g>
    <!-- lace crossings -->
    <g stroke="#3a2515" stroke-width="2" fill="none" opacity="0.85">
      <path d="M 80 40 L 105 60"/>
      <path d="M 105 40 L 80 60"/>
      <path d="M 80 60 L 105 80"/>
      <path d="M 105 60 L 80 80"/>
      <path d="M 80 80 L 105 100"/>
      <path d="M 105 80 L 80 100"/>
    </g>

    <!-- leather highlight/sheen -->
    <path d="M 30 70 Q 50 50 75 45" stroke="#c08a55" stroke-width="3" fill="none" opacity="0.4" stroke-linecap="round"/>
    <path d="M 160 60 Q 180 80 195 105" stroke="#c08a55" stroke-width="3" fill="none" opacity="0.3" stroke-linecap="round"/>
  </g>

  <!-- ====== KEYS on the left side of bench ====== -->
  <g transform="translate(140, 580)">
    <!-- key 1 -->
    <g transform="rotate(-15)">
      <circle cx="0" cy="0" r="22" fill="none" stroke="url(#brass)" stroke-width="5"/>
      <circle cx="0" cy="0" r="11" fill="#1a0f08"/>
      <rect x="20" y="-4" width="60" height="8" fill="url(#brass)"/>
      <rect x="68" y="-12" width="6" height="10" fill="url(#brass)"/>
      <rect x="58" y="-10" width="4" height="7" fill="url(#brass)"/>
    </g>
    <!-- key 2 (overlapping) -->
    <g transform="translate(40, 25) rotate(20)">
      <ellipse cx="0" cy="0" rx="20" ry="18" fill="none" stroke="#8a6530" stroke-width="5"/>
      <ellipse cx="0" cy="0" rx="9" ry="8" fill="#1a0f08"/>
      <rect x="18" y="-3" width="55" height="7" fill="#8a6530"/>
      <path d="M 60 4 L 64 12 L 70 4 Z" fill="#8a6530"/>
      <rect x="50" y="4" width="3" height="6" fill="#8a6530"/>
    </g>
  </g>

  <!-- ====== Spool of waxed thread on right of bench ====== -->
  <g transform="translate(1020, 600)">
    <ellipse cx="0" cy="0" rx="35" ry="10" fill="#3a2515"/>
    <rect x="-35" y="0" width="70" height="45" fill="#5a3a20"/>
    <ellipse cx="0" cy="45" rx="35" ry="10" fill="#2a1810"/>
    <!-- thread wound around -->
    <g stroke="#1a0f08" stroke-width="0.6" fill="none" opacity="0.6">
      <ellipse cx="0" cy="8" rx="34" ry="3"/>
      <ellipse cx="0" cy="14" rx="34" ry="3"/>
      <ellipse cx="0" cy="20" rx="34" ry="3"/>
      <ellipse cx="0" cy="26" rx="34" ry="3"/>
      <ellipse cx="0" cy="32" rx="34" ry="3"/>
      <ellipse cx="0" cy="38" rx="34" ry="3"/>
    </g>
    <!-- thread trailing off -->
    <path d="M 30 25 Q 60 30 90 45 Q 110 55 95 80" stroke="#3a2515" stroke-width="1.5" fill="none" opacity="0.8"/>
  </g>

  <!-- ====== awl in foreground (front-left of bench) ====== -->
  <g transform="translate(280, 700) rotate(-25)">
    <rect x="0" y="0" width="80" height="18" fill="#4a3020" rx="3"/>
    <ellipse cx="0" cy="9" rx="6" ry="9" fill="#3a2515"/>
    <line x1="80" y1="9" x2="135" y2="9" stroke="#9a9590" stroke-width="3"/>
    <line x1="135" y1="9" x2="148" y2="9" stroke="#c0c0c0" stroke-width="2"/>
  </g>

  <!-- foreground vignette darkening at bottom edges -->
  <linearGradient id="vignette" x1="0%" y1="0%" x2="0%" y2="100%">
    <stop offset="0%" stop-color="#000" stop-opacity="0"/>
    <stop offset="100%" stop-color="#000" stop-opacity="0.5"/>
  </linearGradient>
  <rect width="1200" height="800" fill="url(#vignette)" opacity="0.6"/>

  <!-- grain overlay -->
  <rect width="1200" height="800" filter="url(#grain)" opacity="0.6"/>
</svg>
